<svg xmlns="http://www.w3.org/2000/svg" xmlns:xlink="http://www.w3.org/1999/xlink" width="500" zoomAndPan="magnify" viewBox="0 0 375 374.999991" height="500" preserveAspectRatio="xMidYMid meet" version="1.0"><defs><g/><clipPath id="456f654244"><path d="M 55.125 28.125 L 313.113281 28.125 L 313.113281 286.113281 L 55.125 286.113281 Z M 55.125 28.125 " clip-rule="nonzero"/></clipPath><clipPath id="41f2c8bf60"><path d="M 184.117188 28.125 C 112.875 28.125 55.125 85.875 55.125 157.117188 C 55.125 228.359375 112.875 286.113281 184.117188 286.113281 C 255.359375 286.113281 313.113281 228.359375 313.113281 157.117188 C 313.113281 85.875 255.359375 28.125 184.117188 28.125 Z M 184.117188 28.125 " clip-rule="nonzero"/></clipPath><clipPath id="66e8b6fc9a"><path d="M 49.957031 22.957031 L 318.28125 22.957031 L 318.28125 291.28125 L 49.957031 291.28125 Z M 49.957031 22.957031 " clip-rule="nonzero"/></clipPath><clipPath id="dfbe80161b"><path d="M 184.121094 22.957031 C 110.023438 22.957031 49.957031 83.023438 49.957031 157.117188 C 49.957031 231.214844 110.023438 291.28125 184.121094 291.28125 C 258.214844 291.28125 318.28125 231.214844 318.28125 157.117188 C 318.28125 83.023438 258.214844 22.957031 184.121094 22.957031 Z M 184.121094 22.957031 " clip-rule="nonzero"/></clipPath><clipPath id="f2bb132b71"><path d="M 79.503906 240.765625 L 295.496094 240.765625 L 295.496094 304.984375 L 79.503906 304.984375 Z M 79.503906 240.765625 " clip-rule="nonzero"/></clipPath><clipPath id="97c27f9b79"><path d="M 149 37.5 L 216 37.5 L 216 177 L 149 177 Z M 149 37.5 " clip-rule="nonzero"/></clipPath><clipPath id="bdd547e9c7"><path d="M 84.886719 185 L 154 185 L 154 231 L 84.886719 231 Z M 84.886719 185 " clip-rule="nonzero"/></clipPath><clipPath id="5f86e2d877"><path d="M 227 210 L 283.636719 210 L 283.636719 247.5 L 227 247.5 Z M 227 210 " clip-rule="nonzero"/></clipPath></defs><rect x="-37.5" width="450" fill="#ffffff" y="-37.499999" height="449.999989" fill-opacity="1"/><rect x="-37.5" width="450" fill="#ffffff" y="-37.499999" height="449.999989" fill-opacity="1"/><g clip-path="url(#456f654244)"><g clip-path="url(#41f2c8bf60)"><path stroke-linecap="butt" transform="matrix(0.75, 0, 0, 0.75, 55.123741, 28.123585)" fill="none" stroke-linejoin="miter" d="M 171.991273 0.00188726 C 77.001684 0.00188726 0.00167883 77.001892 0.00167883 171.991482 C 0.00167883 266.981071 77.001684 343.986285 171.991273 343.986285 C 266.980863 343.986285 343.986076 266.981071 343.986076 171.991482 C 343.986076 77.001892 266.980863 0.00188726 171.991273 0.00188726 Z M 171.991273 0.00188726 " stroke="#38b6ff" stroke-width="10" stroke-opacity="1" stroke-miterlimit="4"/></g></g><g clip-path="url(#66e8b6fc9a)"><g clip-path="url(#dfbe80161b)"><path stroke-linecap="butt" transform="matrix(0.75, 0, 0, 0.75, 49.957134, 22.956975)" fill="none" stroke-linejoin="miter" d="M 178.885291 0.00007525 C 80.08841 0.00007525 -0.000137026 80.088622 -0.000137026 178.880295 C -0.000137026 277.677177 80.08841 357.765724 178.885291 357.765724 C 277.676965 357.765724 357.765511 277.677177 357.765511 178.880295 C 357.765511 80.088622 277.676965 0.00007525 178.885291 0.00007525 Z M 178.885291 0.00007525 " stroke="#383535" stroke-width="6" stroke-opacity="1" stroke-miterlimit="4"/></g></g><g clip-path="url(#f2bb132b71)"><path fill="#ffffff" d="M 79.503906 240.765625 L 295.496094 240.765625 L 295.496094 304.984375 L 79.503906 304.984375 Z M 79.503906 240.765625 " fill-opacity="1" fill-rule="nonzero"/></g><path fill="#38b6ff" d="M 246.847656 148.867188 L 217.875 128.414062 L 217.875 125.378906 L 246.847656 145.832031 Z M 246.847656 155.957031 L 217.875 135.503906 L 217.875 132.472656 L 246.847656 152.925781 Z M 246.847656 163.050781 L 217.875 142.597656 L 217.875 139.566406 L 246.847656 160.015625 Z M 246.847656 170.140625 L 217.875 149.6875 L 217.875 146.652344 L 246.847656 167.105469 Z M 246.847656 177.230469 L 217.875 156.777344 L 217.875 153.746094 L 246.847656 174.199219 Z M 246.847656 184.324219 L 217.875 163.871094 L 217.875 160.835938 L 246.847656 181.289062 Z M 246.847656 191.414062 L 217.875 170.960938 L 217.875 167.929688 L 246.847656 188.378906 Z M 217.875 119.035156 L 211.617188 122.636719 L 211.617188 178.308594 L 214.464844 178.667969 L 215.890625 178.847656 L 216.933594 179.84375 L 223.3125 185.945312 L 239.148438 197.128906 L 243.953125 196.457031 L 217.875 178.050781 L 217.875 175.019531 L 246.847656 195.472656 L 246.847656 196.050781 L 247.664062 195.941406 L 250.117188 195.597656 L 250.453125 196.019531 L 250.453125 142.035156 Z M 205.753906 126.019531 L 205.753906 149.101562 L 204.152344 149.101562 L 204.152344 126.941406 L 198.554688 130.171875 L 198.554688 166.257812 L 197.433594 166.257812 L 197.433594 130.816406 L 193.785156 132.917969 L 193.785156 170.574219 L 205.476562 170.574219 L 205.476562 177.535156 L 209.273438 178.011719 L 209.273438 123.992188 L 205.753906 126.019531 " fill-opacity="1" fill-rule="nonzero"/><path fill="#38b6ff" d="M 190.578125 214.652344 L 190.894531 214.929688 L 190.894531 217.4375 L 190.578125 217.160156 L 189.425781 216.136719 L 189.425781 213.632812 L 190.578125 214.652344 " fill-opacity="1" fill-rule="nonzero"/><g clip-path="url(#97c27f9b79)"><path fill="#5271ff" d="M 213.015625 87.035156 L 205.992188 80.8125 L 205.992188 66.933594 L 213.015625 73.152344 Z M 213.015625 103.421875 L 205.992188 97.203125 L 205.992188 83.320312 L 213.015625 89.542969 Z M 204.730469 79.695312 L 200.164062 75.65625 L 197.699219 73.480469 L 197.699219 59.59375 L 200.164062 61.773438 L 204.730469 65.816406 Z M 204.730469 96.082031 L 200.164062 92.046875 L 197.699219 89.867188 L 197.699219 75.984375 L 200.164062 78.160156 L 204.730469 82.199219 Z M 204.730469 112.472656 L 200.164062 108.433594 L 197.699219 106.253906 L 197.699219 92.371094 L 200.164062 94.550781 L 204.730469 98.589844 Z M 196.441406 72.359375 L 195.375 71.414062 L 190.578125 67.175781 L 189.417969 66.144531 L 189.417969 52.265625 L 190.578125 53.292969 L 195.375 57.53125 L 196.441406 58.480469 Z M 196.441406 88.75 L 195.375 87.800781 L 190.578125 83.5625 L 189.417969 82.53125 L 189.417969 68.652344 L 190.578125 69.679688 L 195.375 73.917969 L 196.441406 74.863281 Z M 196.441406 105.136719 L 195.375 104.1875 L 190.578125 99.949219 L 189.417969 98.921875 L 189.417969 85.039062 L 190.578125 86.066406 L 195.375 90.308594 L 196.441406 91.253906 Z M 196.441406 121.523438 L 195.375 120.578125 L 190.578125 116.335938 L 189.417969 115.308594 L 189.417969 101.425781 L 190.578125 102.453125 L 195.375 106.695312 L 196.441406 107.640625 Z M 188.152344 65.027344 L 185.785156 62.933594 L 181.601562 59.230469 L 181.128906 58.808594 L 181.128906 44.929688 L 181.601562 45.351562 L 185.785156 49.050781 L 188.152344 51.148438 Z M 188.152344 81.414062 L 185.785156 79.320312 L 181.601562 75.617188 L 181.128906 75.199219 L 181.128906 61.316406 L 181.601562 61.738281 L 185.785156 65.4375 L 188.152344 67.535156 Z M 188.152344 97.800781 L 185.785156 95.707031 L 181.601562 92.003906 L 181.128906 91.585938 L 181.128906 77.703125 L 181.601562 78.125 L 185.785156 81.824219 L 188.152344 83.921875 Z M 188.152344 114.191406 L 185.785156 112.089844 L 181.601562 108.390625 L 181.128906 107.972656 L 181.128906 94.089844 L 181.601562 94.511719 L 185.785156 98.210938 L 188.152344 100.308594 Z M 188.152344 130.574219 L 185.785156 128.476562 L 181.601562 124.777344 L 181.128906 124.359375 L 181.128906 110.476562 L 181.601562 110.894531 L 185.785156 114.597656 L 188.152344 116.695312 Z M 188.152344 146.960938 L 185.785156 144.863281 L 181.601562 141.164062 L 181.128906 140.742188 L 181.128906 126.863281 L 181.601562 127.28125 L 185.785156 130.984375 L 188.152344 133.082031 Z M 188.152344 163.351562 L 185.785156 161.253906 L 181.601562 157.550781 L 181.128906 157.128906 L 181.128906 143.25 L 181.601562 143.671875 L 185.785156 147.371094 L 188.152344 149.46875 Z M 213.160156 68.832031 L 204.660156 61.308594 L 199.867188 57.066406 L 195.078125 52.824219 L 190.28125 48.585938 L 185.492188 44.339844 L 181.308594 40.640625 L 177.84375 37.574219 L 149.738281 57.878906 L 149.738281 89.214844 L 169.089844 97.085938 L 170.890625 97.816406 L 170.890625 174.429688 L 184.15625 176.203125 L 181.601562 173.9375 L 181.128906 173.519531 L 181.128906 159.640625 L 181.601562 160.058594 L 185.785156 163.757812 L 188.152344 165.855469 L 188.152344 170.574219 L 189.417969 170.574219 L 189.417969 166.972656 L 189.425781 166.980469 L 189.425781 164.472656 L 189.417969 164.46875 L 189.417969 150.585938 L 189.425781 150.59375 L 189.425781 148.085938 L 189.417969 148.082031 L 189.417969 134.199219 L 189.425781 134.203125 L 189.425781 131.699219 L 189.417969 131.695312 L 189.417969 117.8125 L 190.578125 118.839844 L 195.375 123.078125 L 196.441406 124.023438 L 196.441406 126.359375 L 197.699219 125.632812 L 197.699219 125.144531 L 198.035156 125.441406 L 199.746094 124.453125 L 197.699219 122.640625 L 197.699219 108.757812 L 200.164062 110.9375 L 204.730469 114.976562 L 204.730469 121.582031 L 205.992188 120.851562 L 205.992188 116.09375 L 209.246094 118.976562 L 209.441406 118.863281 L 210.960938 117.988281 L 205.992188 113.589844 L 205.992188 99.707031 L 213.015625 105.929688 L 213.015625 116.804688 L 215.242188 115.523438 L 215.242188 70.675781 L 213.160156 68.832031 " fill-opacity="1" fill-rule="nonzero"/></g><path fill="#38b6ff" d="M 117.832031 110.289062 L 142.15625 96.695312 L 142.15625 102.226562 L 144.871094 100.300781 L 166.476562 109.085938 L 166.476562 101.28125 L 142.734375 91.625 L 117.832031 110.289062 " fill-opacity="1" fill-rule="nonzero"/><path fill="#38b6ff" d="M 117.832031 123.28125 L 142.15625 109.6875 L 142.15625 115.21875 L 144.871094 113.292969 L 166.476562 122.078125 L 166.476562 114.273438 L 142.734375 104.617188 L 117.832031 123.28125 " fill-opacity="1" fill-rule="nonzero"/><path fill="#38b6ff" d="M 117.832031 136.273438 L 142.15625 122.679688 L 142.15625 128.210938 L 144.871094 126.285156 L 166.476562 135.070312 L 166.476562 127.265625 L 142.734375 117.609375 L 117.832031 136.273438 " fill-opacity="1" fill-rule="nonzero"/><path fill="#38b6ff" d="M 117.832031 149.261719 L 142.15625 135.671875 L 142.15625 141.203125 L 144.871094 139.277344 L 166.476562 148.0625 L 166.476562 140.257812 L 142.734375 130.601562 L 117.832031 149.261719 " fill-opacity="1" fill-rule="nonzero"/><path fill="#38b6ff" d="M 117.832031 162.253906 L 142.15625 148.664062 L 142.15625 154.195312 L 144.871094 152.265625 L 166.476562 161.054688 L 166.476562 153.25 L 142.734375 143.59375 L 117.832031 162.253906 " fill-opacity="1" fill-rule="nonzero"/><path fill="#38b6ff" d="M 117.832031 175.246094 L 123.917969 170.6875 L 122.226562 172.789062 Z M 117.832031 175.246094 " fill-opacity="1" fill-rule="nonzero"/><path fill="#38b6ff" d="M 166.476562 166.238281 L 166.476562 174.042969 L 165.734375 173.742188 L 144.871094 165.257812 L 142.15625 167.1875 L 142.15625 161.65625 L 129.238281 168.871094 L 126.777344 168.542969 L 142.734375 156.585938 L 166.476562 166.238281 " fill-opacity="1" fill-rule="nonzero"/><path fill="#38b6ff" d="M 146.746094 171.207031 L 141.492188 170.507812 L 142.734375 169.578125 Z M 146.746094 171.207031 " fill-opacity="1" fill-rule="nonzero"/><g clip-path="url(#bdd547e9c7)"><path fill="#ffbd59" d="M 153.296875 212.957031 C 152.847656 212.582031 135.898438 201.316406 127.605469 194.542969 L 84.882812 230.855469 L 124.433594 189.289062 L 127.605469 185.957031 L 132.984375 191.609375 L 153.296875 212.957031 " fill-opacity="1" fill-rule="nonzero"/></g><path fill="#383535" d="M 202.550781 197.445312 L 185.664062 197.445312 L 185.664062 203.289062 L 178.964844 204.105469 L 177.523438 204.277344 L 176.476562 205.28125 L 164.023438 217.199219 L 127.605469 178.925781 L 97.289062 210.785156 L 127.609375 173.050781 L 188 181.109375 L 188 188.488281 L 191.179688 191.832031 L 191.179688 174.933594 L 201.117188 174.933594 L 201.117188 181.378906 L 213.921875 182.988281 L 230.023438 198.402344 L 202.550781 202.238281 L 202.550781 197.445312 " fill-opacity="1" fill-rule="nonzero"/><path fill="#ffbd59" d="M 119.289062 216.019531 L 119.289062 217.890625 L 126.160156 217.890625 L 126.160156 209.148438 C 122.367188 209.148438 119.289062 212.222656 119.289062 216.019531 " fill-opacity="1" fill-rule="nonzero"/><path fill="#ffbd59" d="M 128.867188 209.148438 L 128.867188 217.890625 L 135.734375 217.890625 L 135.734375 216.019531 C 135.734375 212.222656 132.660156 209.148438 128.867188 209.148438 " fill-opacity="1" fill-rule="nonzero"/><path fill="#ffbd59" d="M 119.289062 227.460938 L 126.160156 227.460938 L 126.160156 220.589844 L 119.289062 220.589844 L 119.289062 227.460938 " fill-opacity="1" fill-rule="nonzero"/><path fill="#ffbd59" d="M 128.867188 227.460938 L 135.734375 227.460938 L 135.734375 220.589844 L 128.867188 220.589844 L 128.867188 227.460938 " fill-opacity="1" fill-rule="nonzero"/><g clip-path="url(#5f86e2d877)"><path fill="#383535" d="M 283.402344 247.796875 L 258.707031 226.804688 L 248.265625 217.929688 C 245.101562 220.515625 240.40625 223.894531 236.25 226.804688 C 231.4375 230.171875 227.335938 232.910156 227.140625 233.074219 L 233.105469 226.804688 L 243.84375 215.519531 L 245.777344 213.484375 L 248.265625 210.871094 L 250.875 213.609375 L 283.402344 247.796875 " fill-opacity="1" fill-rule="nonzero"/></g><path fill="#ffbd59" d="M 273.199219 231.289062 L 248.265625 205.085938 L 242.898438 210.730469 L 227.605469 226.804688 L 210.796875 244.460938 L 141.847656 244.460938 L 167.027344 220.355469 L 179.488281 208.429688 L 190.019531 207.152344 L 190.019531 201.804688 L 198.191406 201.804688 L 198.191406 215.703125 L 200.804688 212.953125 L 200.804688 206.882812 L 234.03125 202.246094 L 248.265625 200.253906 L 273.199219 231.289062 " fill-opacity="1" fill-rule="nonzero"/><path fill="#383535" d="M 255.105469 235.59375 L 255.105469 237.132812 L 249.457031 237.132812 L 249.457031 229.941406 C 252.578125 229.941406 255.105469 232.472656 255.105469 235.59375 " fill-opacity="1" fill-rule="nonzero"/><path fill="#383535" d="M 247.230469 229.941406 L 247.230469 237.132812 L 241.578125 237.132812 L 241.578125 235.59375 C 241.578125 232.472656 244.109375 229.941406 247.230469 229.941406 " fill-opacity="1" fill-rule="nonzero"/><path fill="#383535" d="M 255.105469 245.003906 L 249.457031 245.003906 L 249.457031 239.351562 L 255.105469 239.351562 L 255.105469 245.003906 " fill-opacity="1" fill-rule="nonzero"/><path fill="#383535" d="M 247.230469 245.003906 L 241.578125 245.003906 L 241.578125 239.351562 L 247.230469 239.351562 L 247.230469 245.003906 " fill-opacity="1" fill-rule="nonzero"/><path fill="#38b6ff" d="M 165.734375 173.742188 L 166.476562 174.042969 L 166.476562 173.84375 Z M 165.734375 173.742188 " fill-opacity="1" fill-rule="nonzero"/><g fill="#383535" fill-opacity="1"><g transform="translate(110.484203, 321.243963)"><g><path d="M 7.171875 0.28125 C 5.898438 0.28125 4.671875 0.109375 3.484375 -0.234375 C 2.304688 -0.578125 1.359375 -1.023438 0.640625 -1.578125 L 1.90625 -4.375 C 2.59375 -3.875 3.40625 -3.46875 4.34375 -3.15625 C 5.289062 -2.851562 6.238281 -2.703125 7.1875 -2.703125 C 8.238281 -2.703125 9.015625 -2.859375 9.515625 -3.171875 C 10.023438 -3.484375 10.28125 -3.898438 10.28125 -4.421875 C 10.28125 -4.804688 10.128906 -5.125 9.828125 -5.375 C 9.535156 -5.625 9.15625 -5.820312 8.6875 -5.96875 C 8.226562 -6.125 7.597656 -6.296875 6.796875 -6.484375 C 5.578125 -6.773438 4.578125 -7.0625 3.796875 -7.34375 C 3.023438 -7.632812 2.359375 -8.101562 1.796875 -8.75 C 1.242188 -9.394531 0.96875 -10.25 0.96875 -11.3125 C 0.96875 -12.25 1.21875 -13.09375 1.71875 -13.84375 C 2.21875 -14.601562 2.972656 -15.203125 3.984375 -15.640625 C 5.003906 -16.085938 6.25 -16.3125 7.71875 -16.3125 C 8.738281 -16.3125 9.738281 -16.1875 10.71875 -15.9375 C 11.695312 -15.695312 12.550781 -15.347656 13.28125 -14.890625 L 12.140625 -12.078125 C 10.660156 -12.910156 9.179688 -13.328125 7.703125 -13.328125 C 6.660156 -13.328125 5.890625 -13.160156 5.390625 -12.828125 C 4.898438 -12.492188 4.65625 -12.050781 4.65625 -11.5 C 4.65625 -10.945312 4.941406 -10.535156 5.515625 -10.265625 C 6.085938 -10.003906 6.957031 -9.742188 8.125 -9.484375 C 9.351562 -9.191406 10.351562 -8.898438 11.125 -8.609375 C 11.90625 -8.316406 12.570312 -7.859375 13.125 -7.234375 C 13.6875 -6.609375 13.96875 -5.765625 13.96875 -4.703125 C 13.96875 -3.785156 13.710938 -2.945312 13.203125 -2.1875 C 12.691406 -1.425781 11.925781 -0.820312 10.90625 -0.375 C 9.882812 0.0625 8.640625 0.28125 7.171875 0.28125 Z M 7.171875 0.28125 "/></g></g></g><g fill="#383535" fill-opacity="1"><g transform="translate(126.85758, 321.243963)"><g><path d="M 9.671875 0.28125 C 8.003906 0.28125 6.5 -0.078125 5.15625 -0.796875 C 3.820312 -1.515625 2.773438 -2.503906 2.015625 -3.765625 C 1.265625 -5.023438 0.890625 -6.441406 0.890625 -8.015625 C 0.890625 -9.585938 1.265625 -11.003906 2.015625 -12.265625 C 2.773438 -13.523438 3.820312 -14.515625 5.15625 -15.234375 C 6.5 -15.953125 8.003906 -16.3125 9.671875 -16.3125 C 11.328125 -16.3125 12.820312 -15.953125 14.15625 -15.234375 C 15.488281 -14.515625 16.535156 -13.523438 17.296875 -12.265625 C 18.054688 -11.003906 18.4375 -9.585938 18.4375 -8.015625 C 18.4375 -6.441406 18.054688 -5.023438 17.296875 -3.765625 C 16.535156 -2.503906 15.488281 -1.515625 14.15625 -0.796875 C 12.820312 -0.078125 11.328125 0.28125 9.671875 0.28125 Z M 9.671875 -2.890625 C 10.617188 -2.890625 11.472656 -3.101562 12.234375 -3.53125 C 12.992188 -3.96875 13.59375 -4.578125 14.03125 -5.359375 C 14.46875 -6.140625 14.6875 -7.023438 14.6875 -8.015625 C 14.6875 -9.003906 14.46875 -9.890625 14.03125 -10.671875 C 13.59375 -11.453125 12.992188 -12.054688 12.234375 -12.484375 C 11.472656 -12.921875 10.617188 -13.140625 9.671875 -13.140625 C 8.722656 -13.140625 7.863281 -12.921875 7.09375 -12.484375 C 6.332031 -12.054688 5.734375 -11.453125 5.296875 -10.671875 C 4.867188 -9.890625 4.65625 -9.003906 4.65625 -8.015625 C 4.65625 -7.023438 4.867188 -6.140625 5.296875 -5.359375 C 5.734375 -4.578125 6.332031 -3.96875 7.09375 -3.53125 C 7.863281 -3.101562 8.722656 -2.890625 9.671875 -2.890625 Z M 9.671875 -2.890625 "/></g></g></g><g fill="#383535" fill-opacity="1"><g transform="translate(147.948028, 321.243963)"><g><path d="M 1.90625 -16.03125 L 5.609375 -16.03125 L 5.609375 -3.03125 L 13.65625 -3.03125 L 13.65625 0 L 1.90625 0 Z M 1.90625 -16.03125 "/></g></g></g><g fill="#383535" fill-opacity="1"><g transform="translate(163.542866, 321.243963)"><g><path d="M 9.03125 0.28125 C 6.738281 0.28125 4.953125 -0.351562 3.671875 -1.625 C 2.398438 -2.894531 1.765625 -4.707031 1.765625 -7.0625 L 1.765625 -16.03125 L 5.46875 -16.03125 L 5.46875 -7.1875 C 5.46875 -4.320312 6.660156 -2.890625 9.046875 -2.890625 C 10.203125 -2.890625 11.085938 -3.234375 11.703125 -3.921875 C 12.316406 -4.617188 12.625 -5.707031 12.625 -7.1875 L 12.625 -16.03125 L 16.28125 -16.03125 L 16.28125 -7.0625 C 16.28125 -4.707031 15.644531 -2.894531 14.375 -1.625 C 13.101562 -0.351562 11.320312 0.28125 9.03125 0.28125 Z M 9.03125 0.28125 "/></g></g></g><g fill="#383535" fill-opacity="1"><g transform="translate(183.351003, 321.243963)"><g><path d="M 5.21875 -13.015625 L 0.09375 -13.015625 L 0.09375 -16.03125 L 14.0625 -16.03125 L 14.0625 -13.015625 L 8.9375 -13.015625 L 8.9375 0 L 5.21875 0 Z M 5.21875 -13.015625 "/></g></g></g><g fill="#383535" fill-opacity="1"><g transform="translate(199.266409, 321.243963)"><g><path d="M 1.90625 -16.03125 L 5.609375 -16.03125 L 5.609375 0 L 1.90625 0 Z M 1.90625 -16.03125 "/></g></g></g><g fill="#383535" fill-opacity="1"><g transform="translate(208.541295, 321.243963)"><g><path d="M 9.671875 0.28125 C 8.003906 0.28125 6.5 -0.078125 5.15625 -0.796875 C 3.820312 -1.515625 2.773438 -2.503906 2.015625 -3.765625 C 1.265625 -5.023438 0.890625 -6.441406 0.890625 -8.015625 C 0.890625 -9.585938 1.265625 -11.003906 2.015625 -12.265625 C 2.773438 -13.523438 3.820312 -14.515625 5.15625 -15.234375 C 6.5 -15.953125 8.003906 -16.3125 9.671875 -16.3125 C 11.328125 -16.3125 12.820312 -15.953125 14.15625 -15.234375 C 15.488281 -14.515625 16.535156 -13.523438 17.296875 -12.265625 C 18.054688 -11.003906 18.4375 -9.585938 18.4375 -8.015625 C 18.4375 -6.441406 18.054688 -5.023438 17.296875 -3.765625 C 16.535156 -2.503906 15.488281 -1.515625 14.15625 -0.796875 C 12.820312 -0.078125 11.328125 0.28125 9.671875 0.28125 Z M 9.671875 -2.890625 C 10.617188 -2.890625 11.472656 -3.101562 12.234375 -3.53125 C 12.992188 -3.96875 13.59375 -4.578125 14.03125 -5.359375 C 14.46875 -6.140625 14.6875 -7.023438 14.6875 -8.015625 C 14.6875 -9.003906 14.46875 -9.890625 14.03125 -10.671875 C 13.59375 -11.453125 12.992188 -12.054688 12.234375 -12.484375 C 11.472656 -12.921875 10.617188 -13.140625 9.671875 -13.140625 C 8.722656 -13.140625 7.863281 -12.921875 7.09375 -12.484375 C 6.332031 -12.054688 5.734375 -11.453125 5.296875 -10.671875 C 4.867188 -9.890625 4.65625 -9.003906 4.65625 -8.015625 C 4.65625 -7.023438 4.867188 -6.140625 5.296875 -5.359375 C 5.734375 -4.578125 6.332031 -3.96875 7.09375 -3.53125 C 7.863281 -3.101562 8.722656 -2.890625 9.671875 -2.890625 Z M 9.671875 -2.890625 "/></g></g></g><g fill="#383535" fill-opacity="1"><g transform="translate(229.631748, 321.243963)"><g><path d="M 16.609375 -16.03125 L 16.609375 0 L 13.5625 0 L 5.5625 -9.734375 L 5.5625 0 L 1.90625 0 L 1.90625 -16.03125 L 4.96875 -16.03125 L 12.9375 -6.296875 L 12.9375 -16.03125 Z M 16.609375 -16.03125 "/></g></g></g><g fill="#383535" fill-opacity="1"><g transform="translate(249.89786, 321.243963)"><g><path d="M 7.171875 0.28125 C 5.898438 0.28125 4.671875 0.109375 3.484375 -0.234375 C 2.304688 -0.578125 1.359375 -1.023438 0.640625 -1.578125 L 1.90625 -4.375 C 2.59375 -3.875 3.40625 -3.46875 4.34375 -3.15625 C 5.289062 -2.851562 6.238281 -2.703125 7.1875 -2.703125 C 8.238281 -2.703125 9.015625 -2.859375 9.515625 -3.171875 C 10.023438 -3.484375 10.28125 -3.898438 10.28125 -4.421875 C 10.28125 -4.804688 10.128906 -5.125 9.828125 -5.375 C 9.535156 -5.625 9.15625 -5.820312 8.6875 -5.96875 C 8.226562 -6.125 7.597656 -6.296875 6.796875 -6.484375 C 5.578125 -6.773438 4.578125 -7.0625 3.796875 -7.34375 C 3.023438 -7.632812 2.359375 -8.101562 1.796875 -8.75 C 1.242188 -9.394531 0.96875 -10.25 0.96875 -11.3125 C 0.96875 -12.25 1.21875 -13.09375 1.71875 -13.84375 C 2.21875 -14.601562 2.972656 -15.203125 3.984375 -15.640625 C 5.003906 -16.085938 6.25 -16.3125 7.71875 -16.3125 C 8.738281 -16.3125 9.738281 -16.1875 10.71875 -15.9375 C 11.695312 -15.695312 12.550781 -15.347656 13.28125 -14.890625 L 12.140625 -12.078125 C 10.660156 -12.910156 9.179688 -13.328125 7.703125 -13.328125 C 6.660156 -13.328125 5.890625 -13.160156 5.390625 -12.828125 C 4.898438 -12.492188 4.65625 -12.050781 4.65625 -11.5 C 4.65625 -10.945312 4.941406 -10.535156 5.515625 -10.265625 C 6.085938 -10.003906 6.957031 -9.742188 8.125 -9.484375 C 9.351562 -9.191406 10.351562 -8.898438 11.125 -8.609375 C 11.90625 -8.316406 12.570312 -7.859375 13.125 -7.234375 C 13.6875 -6.609375 13.96875 -5.765625 13.96875 -4.703125 C 13.96875 -3.785156 13.710938 -2.945312 13.203125 -2.1875 C 12.691406 -1.425781 11.925781 -0.820312 10.90625 -0.375 C 9.882812 0.0625 8.640625 0.28125 7.171875 0.28125 Z M 7.171875 0.28125 "/></g></g></g><g fill="#5271ff" fill-opacity="1"><g transform="translate(30.81078, 288.039682)"><g><path d="M 11.65625 0.09375 L 10.28125 0.046875 L 8.984375 -0.40625 L 8.40625 -1.390625 L 8.484375 -2.234375 L 8.53125 -4.828125 L 8.453125 -5.765625 L 8.484375 -9.390625 L 8.578125 -10.28125 L 8.453125 -16.9375 L 8.53125 -18.1875 L 8.484375 -19.078125 L 8.53125 -20.0625 L 8.453125 -21.3125 L 8.53125 -22.75 L 8.046875 -23.640625 L 7.1875 -24.09375 L 2.953125 -24.171875 L 2.0625 -24.09375 L 1.25 -24.53125 L 0.84375 -25.34375 L 0.765625 -26.71875 L 0.84375 -28.953125 L 0.796875 -29.84375 L 1.34375 -30.875 L 2.1875 -31.328125 L 5.3125 -31.140625 L 6.703125 -31.28125 L 9.34375 -31.140625 L 10.140625 -31.328125 L 11.125 -31.234375 L 12.0625 -31.375 L 12.921875 -31.328125 L 13.8125 -31.140625 L 17.421875 -31.328125 L 18.28125 -31.234375 L 19.21875 -31.375 L 20.0625 -31.28125 L 22.828125 -31.28125 L 23.6875 -30.703125 L 24.171875 -29.8125 L 24.125 -25.5625 L 23.59375 -24.578125 L 22.828125 -24.09375 L 22.03125 -24.125 L 21.09375 -24 L 19.4375 -24.21875 L 17.703125 -24.125 L 16.84375 -23.59375 L 16.484375 -22.25 L 16.359375 -18.359375 L 16.484375 -17.421875 L 16.40625 -10.234375 L 16.53125 -9.25 L 16.4375 -8.453125 L 16.484375 -6.65625 L 16.40625 -5.71875 L 16.53125 -4.015625 L 16.40625 -1.703125 L 15.953125 -0.453125 L 14.65625 0 Z M 11.65625 0.09375 "/></g></g></g><g fill="#5271ff" fill-opacity="1"><g transform="translate(53.643935, 288.039682)"><g/></g></g><g fill="#5271ff" fill-opacity="1"><g transform="translate(63.607978, 288.039682)"><g><path d="M 11.9375 0.53125 L 11.078125 0.453125 L 9.25 -0.09375 L 8.359375 -0.453125 L 7.546875 -0.71875 L 6.125 -1.5625 L 5.359375 -2.140625 L 4.203125 -3.4375 L 3.171875 -4.828125 L 2.71875 -5.71875 L 2.1875 -7.375 L 2.015625 -9.46875 L 2.09375 -11.703125 L 2.59375 -13.359375 L 3.9375 -15.59375 L 4.515625 -16.171875 L 5.09375 -16.9375 L 5.40625 -17.828125 L 5.3125 -18.640625 L 4.5625 -20.15625 L 3.984375 -21.71875 L 3.984375 -24.484375 L 4.203125 -25.296875 L 4.375 -26.28125 L 4.734375 -26.984375 L 5.3125 -27.75 L 5.671875 -28.375 L 6.25 -29.046875 L 7.734375 -30.25 L 8.453125 -30.65625 L 10.09375 -31.375 L 11.890625 -31.8125 L 14.078125 -31.953125 L 16.84375 -31.734375 L 19 -31.0625 L 19.75 -30.703125 L 21.40625 -29.5 L 22.515625 -28.25 L 23.015625 -27.484375 L 23.421875 -26.640625 L 23.8125 -24.796875 L 23.421875 -23.859375 L 22.078125 -23.59375 L 18.015625 -23.546875 L 17.03125 -23.953125 L 16.171875 -24.53125 L 15.375 -25.03125 L 14.171875 -25.25 L 12.953125 -25.0625 L 12.296875 -24.625 L 11.703125 -23.953125 L 11.625 -22.703125 L 11.9375 -21.453125 L 12.828125 -20.953125 L 14.078125 -20.640625 L 15.234375 -20.0625 L 15.5 -19.125 L 15.59375 -15.28125 L 15.1875 -14.34375 L 14.078125 -13.984375 L 12.875 -13.8125 L 11.9375 -13.359375 L 11.171875 -12.78125 L 10.6875 -12.203125 L 10.28125 -11.265625 L 10.140625 -10.0625 L 10.234375 -8.578125 L 10.6875 -7.859375 L 11.3125 -7.15625 L 12.015625 -6.609375 L 12.828125 -6.34375 L 14.125 -6.125 L 15.46875 -6.296875 L 16.265625 -6.703125 L 17.078125 -7.1875 L 18.015625 -8.625 L 18.1875 -19.390625 L 18.71875 -20.15625 L 19.625 -20.640625 L 20.515625 -20.640625 L 21.40625 -20.515625 L 22.65625 -20.640625 L 24.9375 -20.640625 L 25.875 -20.734375 L 26.765625 -20.59375 L 27.578125 -20.15625 L 28.015625 -18.90625 L 27.96875 -17.515625 L 28.109375 -16.71875 L 28.109375 -15.015625 L 27.65625 -14.171875 L 26.671875 -13.578125 L 25.734375 -13.234375 L 25.296875 -12.015625 L 25.203125 -8.84375 L 24.984375 -7.015625 L 24.484375 -5.359375 L 23.734375 -3.671875 L 22.5625 -2.375 L 21.234375 -1.15625 L 19.75 -0.21875 L 18.015625 0.3125 L 15.90625 0.578125 Z M 11.9375 0.53125 "/></g></g></g><g fill="#5271ff" fill-opacity="1"><g transform="translate(100.962995, 288.039682)"><g><path d="M 11.65625 0.09375 L 10.28125 0.046875 L 8.984375 -0.40625 L 8.40625 -1.390625 L 8.484375 -2.234375 L 8.53125 -4.828125 L 8.453125 -5.765625 L 8.484375 -9.390625 L 8.578125 -10.28125 L 8.453125 -16.9375 L 8.53125 -18.1875 L 8.484375 -19.078125 L 8.53125 -20.0625 L 8.453125 -21.3125 L 8.53125 -22.75 L 8.046875 -23.640625 L 7.1875 -24.09375 L 2.953125 -24.171875 L 2.0625 -24.09375 L 1.25 -24.53125 L 0.84375 -25.34375 L 0.765625 -26.71875 L 0.84375 -28.953125 L 0.796875 -29.84375 L 1.34375 -30.875 L 2.1875 -31.328125 L 5.3125 -31.140625 L 6.703125 -31.28125 L 9.34375 -31.140625 L 10.140625 -31.328125 L 11.125 -31.234375 L 12.0625 -31.375 L 12.921875 -31.328125 L 13.8125 -31.140625 L 17.421875 -31.328125 L 18.28125 -31.234375 L 19.21875 -31.375 L 20.0625 -31.28125 L 22.828125 -31.28125 L 23.6875 -30.703125 L 24.171875 -29.8125 L 24.125 -25.5625 L 23.59375 -24.578125 L 22.828125 -24.09375 L 22.03125 -24.125 L 21.09375 -24 L 19.4375 -24.21875 L 17.703125 -24.125 L 16.84375 -23.59375 L 16.484375 -22.25 L 16.359375 -18.359375 L 16.484375 -17.421875 L 16.40625 -10.234375 L 16.53125 -9.25 L 16.4375 -8.453125 L 16.484375 -6.65625 L 16.40625 -5.71875 L 16.53125 -4.015625 L 16.40625 -1.703125 L 15.953125 -0.453125 L 14.65625 0 Z M 11.65625 0.09375 "/></g></g></g><g fill="#5271ff" fill-opacity="1"><g transform="translate(123.796147, 288.039682)"><g/></g></g><g fill="#5271ff" fill-opacity="1"><g transform="translate(133.760187, 288.039682)"><g><path d="M 3.359375 -1.390625 L 3.265625 -2.234375 L 3.359375 -12.015625 L 3.21875 -13.359375 L 3.390625 -21.890625 L 3.265625 -23.78125 L 3.359375 -26.40625 L 3.3125 -27.21875 L 3.359375 -28.15625 L 3.265625 -28.953125 L 3.265625 -29.9375 L 3.703125 -30.875 L 4.6875 -31.328125 L 10.09375 -31.234375 L 10.90625 -31.421875 L 12.640625 -31.1875 L 13.453125 -31.375 L 18.046875 -31.234375 L 19.796875 -30.828125 L 20.5625 -30.5625 L 21.40625 -30.171875 L 22.171875 -29.71875 L 22.796875 -29.21875 L 23.46875 -28.78125 L 24.125 -28.15625 L 25.609375 -26.09375 L 25.921875 -25.15625 L 26.28125 -23.546875 L 26.359375 -22.171875 L 26.328125 -20.640625 L 25.78125 -19.03125 L 24.9375 -17.296875 L 24.625 -16.4375 L 25.0625 -15.421875 L 25.78125 -14.796875 L 26.359375 -14.125 L 27.171875 -12.296875 L 27.65625 -10.6875 L 27.578125 -7.0625 L 27.21875 -6.21875 L 26.953125 -5.359375 L 26.5 -4.46875 L 25.296875 -2.8125 L 23.5 -1.390625 L 22.703125 -0.984375 L 20.203125 -0.265625 L 19.390625 -0.140625 L 14.796875 0.09375 L 13.890625 -0.046875 L 7.421875 0.046875 L 6.078125 -0.09375 L 4.609375 0.046875 L 3.75 -0.484375 Z M 12.515625 -19.078125 L 15.953125 -19.21875 L 17.25 -19.65625 L 17.921875 -20.203125 L 18.234375 -21.5 L 18.09375 -22.828125 L 17.734375 -23.546875 L 17.03125 -23.90625 L 12.421875 -24.21875 L 11.578125 -23.6875 L 11.03125 -22.390625 L 11.078125 -20.875 L 11.578125 -19.625 Z M 12.375 -7.15625 L 15.8125 -7.0625 L 18.28125 -7.28125 L 19.03125 -7.78125 L 19.53125 -8.40625 L 19.75 -9.703125 L 19.484375 -10.8125 L 19.03125 -11.625 L 18.28125 -11.9375 L 14.078125 -12.328125 L 13.140625 -12.25 L 12.296875 -12.375 L 11.53125 -11.796875 L 11.125 -11.03125 L 11 -8.359375 L 11.578125 -7.46875 Z M 12.375 -7.15625 "/></g></g></g><g fill="#5271ff" fill-opacity="1"><g transform="translate(161.106474, 288.039682)"><g><path d="M 15.375 0.578125 L 13.9375 0.484375 L 13.046875 0.484375 L 11.3125 0.140625 L 9.609375 -0.625 L 8.9375 -1.03125 L 8.046875 -1.4375 L 6.609375 -2.375 L 5.9375 -2.953125 L 5.40625 -3.578125 L 4.375 -5.1875 L 3.671875 -6.703125 L 3.21875 -8.53125 L 2.953125 -12.109375 L 3.078125 -19.3125 L 3 -20.15625 L 3.125 -21.046875 L 3 -27.296875 L 3.078125 -28.015625 L 3.078125 -29.09375 L 3 -29.984375 L 3.578125 -30.828125 L 4.515625 -31.1875 L 5.453125 -31.328125 L 7.375 -31.140625 L 8.265625 -31.28125 L 9.109375 -31.28125 L 10.0625 -30.875 L 10.59375 -29.890625 L 10.6875 -28.59375 L 10.59375 -27.171875 L 10.6875 -26.5 L 10.546875 -12.109375 L 10.8125 -9.515625 L 11.078125 -8.671875 L 11.625 -7.953125 L 12.328125 -7.421875 L 13.09375 -6.96875 L 14.125 -6.75 L 16.796875 -6.75 L 18.359375 -7.328125 L 19.125 -7.859375 L 19.625 -8.765625 L 19.890625 -9.421875 L 20.203125 -12.203125 L 20.109375 -29.8125 L 20.59375 -30.796875 L 21.546875 -31.234375 L 23.421875 -31.109375 L 26.234375 -31.1875 L 27.21875 -30.875 L 27.796875 -29.9375 L 27.65625 -29.046875 L 27.65625 -25.34375 L 27.75 -24.625 L 27.65625 -23.640625 L 27.75 -22.796875 L 27.75 -10.71875 L 27.53125 -8.578125 L 27.125 -6.703125 L 26.671875 -5.9375 L 26.40625 -5.046875 L 25.375 -3.484375 L 24.125 -2.234375 L 22.65625 -1.25 L 21.046875 -0.40625 L 17.5625 0.484375 L 16.71875 0.453125 Z M 15.375 0.578125 "/></g></g></g><g fill="#5271ff" fill-opacity="1"><g transform="translate(189.793288, 288.039682)"><g><path d="M 12.015625 0.40625 L 10.1875 0.09375 L 8.453125 -0.53125 L 7.546875 -0.796875 L 6.703125 -1.203125 L 6.078125 -1.875 L 4.515625 -2.859375 L 3.9375 -3.53125 L 3.3125 -4.109375 L 2.453125 -5.765625 L 2.1875 -6.5625 L 2.015625 -7.46875 L 1.875 -8.359375 L 2.234375 -9.296875 L 3.03125 -9.65625 L 6.484375 -9.828125 L 7.328125 -9.703125 L 8.140625 -9.78125 L 9.03125 -9.421875 L 10.5 -7.828125 L 11.265625 -7.328125 L 12.015625 -6.921875 L 14.296875 -6.703125 L 15.109375 -6.84375 L 16.484375 -6.921875 L 18.015625 -7.59375 L 18.59375 -8.265625 L 18.953125 -9.390625 L 18.671875 -10.5 L 18.09375 -11.03125 L 16.484375 -11.796875 L 9.46875 -12.609375 L 7.859375 -13.140625 L 4.828125 -14.796875 L 3.171875 -16.84375 L 2.453125 -18.40625 L 2.140625 -20.203125 L 2.09375 -21.578125 L 2.234375 -23.78125 L 3.03125 -26.234375 L 4.609375 -28.328125 L 6.75 -29.8125 L 8.265625 -30.703125 L 9.96875 -31.234375 L 10.765625 -31.375 L 11.65625 -31.421875 L 12.640625 -31.6875 L 16.09375 -31.59375 L 17.828125 -31.234375 L 20.328125 -30.390625 L 23.28125 -28.328125 L 24.265625 -26.984375 L 25.515625 -24.671875 L 25.609375 -23.8125 L 25.78125 -22.96875 L 25.421875 -22.203125 L 24.578125 -21.578125 L 23.78125 -21.671875 L 22.875 -21.671875 L 21.671875 -21.765625 L 19.578125 -21.578125 L 18.59375 -22.171875 L 17.921875 -23.0625 L 17.15625 -23.6875 L 16.359375 -24.21875 L 15.546875 -24.4375 L 14.125 -24.625 L 12.6875 -24.578125 L 11.890625 -24.40625 L 11.171875 -24 L 10.5 -23.5 L 9.96875 -22.921875 L 9.734375 -21.71875 L 9.921875 -20.375 L 10.59375 -19.75 L 12.25 -18.953125 L 14.609375 -18.453125 L 15.90625 -18.453125 L 16.84375 -18.28125 L 17.734375 -18.234375 L 18.640625 -18.09375 L 22.125 -17.03125 L 22.921875 -16.53125 L 23.640625 -16.171875 L 24.4375 -15.46875 L 25.609375 -14.125 L 26.09375 -13.40625 L 26.765625 -10.8125 L 26.859375 -9.390625 L 26.59375 -7.15625 L 26.328125 -6.390625 L 26.046875 -5.59375 L 25.5625 -4.609375 L 25.109375 -3.984375 L 23.8125 -2.640625 L 20.78125 -0.796875 L 19.9375 -0.40625 L 19.125 -0.3125 L 18.234375 0.046875 L 17.34375 0.171875 L 16.4375 0.40625 L 15.546875 0.484375 Z M 12.015625 0.40625 "/></g></g></g><g fill="#5271ff" fill-opacity="1"><g transform="translate(216.156514, 288.039682)"><g><path d="M 14.96875 0.171875 L 14.078125 -0.046875 L 11.890625 -0.046875 L 10.546875 0.140625 L 8.765625 -0.046875 L 7.859375 0.046875 L 6.484375 0.09375 L 5.1875 -0.09375 L 4.328125 0 L 3.484375 0 L 2.59375 -0.40625 L 2.140625 -1.609375 L 2.28125 -5.71875 L 2.765625 -6.53125 L 5.71875 -7.421875 L 6.21875 -8.765625 L 6.078125 -22.484375 L 5.671875 -23.6875 L 4.828125 -24.21875 L 3.9375 -24.21875 L 2.953125 -24.71875 L 2.453125 -25.609375 L 2.546875 -26.453125 L 2.40625 -29.765625 L 2.859375 -30.828125 L 3.75 -31.28125 L 4.78125 -31.28125 L 5.625 -31.140625 L 9.296875 -31.140625 L 10.1875 -31.328125 L 11 -31.234375 L 16.40625 -31.234375 L 17.203125 -30.75 L 17.734375 -29.890625 L 17.703125 -25.46875 L 17.25 -24.75 L 16.3125 -24.40625 L 15.421875 -24.265625 L 14.4375 -23.859375 L 14.125 -22.828125 L 13.9375 -18.328125 L 14.125 -15.109375 L 14.03125 -14.125 L 14.078125 -9.203125 L 13.9375 -8.359375 L 14.484375 -7.328125 L 15.546875 -6.96875 L 16.484375 -6.96875 L 17.46875 -6.484375 L 18.015625 -5.625 L 18.015625 -1.203125 L 17.5625 -0.359375 L 16.765625 0.09375 Z M 14.96875 0.171875 "/></g></g></g><g fill="#5271ff" fill-opacity="1"><g transform="translate(234.297805, 288.039682)"><g><path d="M 26.359375 -0.765625 L 25.703125 -1.34375 L 24.53125 -2.640625 L 17.609375 -9.515625 L 16.84375 -10.015625 L 16.265625 -10.6875 L 13.09375 -13.71875 L 12.515625 -14.484375 L 11.9375 -14.703125 L 11.625 -13.9375 L 11.53125 -13.046875 L 11.484375 -1.75 L 11.03125 -0.359375 L 10.140625 0.09375 L 9.203125 0.140625 L 7.46875 0 L 6.484375 0.09375 L 4.640625 0 L 3.703125 -0.3125 L 3.3125 -1.15625 L 3.21875 -4.921875 L 3.3125 -5.765625 L 3.21875 -13.09375 L 3.359375 -13.859375 L 3.265625 -15.6875 L 3.3125 -16.4375 L 3.3125 -29.984375 L 3.703125 -30.828125 L 4.734375 -31.28125 L 6.078125 -30.96875 L 7.109375 -30.4375 L 7.78125 -29.890625 L 16.578125 -21 L 17.828125 -20.015625 L 21 -16.84375 L 21.671875 -16.53125 L 21.9375 -17.296875 L 22.03125 -25.296875 L 21.9375 -26.28125 L 22.078125 -28.15625 L 21.9375 -28.875 L 21.984375 -29.8125 L 22.484375 -30.75 L 23.328125 -31.234375 L 28.875 -31.28125 L 29.765625 -30.796875 L 30.203125 -29.890625 L 30.34375 -23.6875 L 30.203125 -22.609375 L 30.203125 -18.1875 L 30.34375 -17.421875 L 30.25 -1.125 L 29.8125 -0.21875 L 28.828125 0.09375 L 27.578125 -0.046875 Z M 26.359375 -0.765625 "/></g></g></g><g fill="#5271ff" fill-opacity="1"><g transform="translate(265.844436, 288.039682)"><g><path d="M 15.546875 0.140625 L 14.65625 0.046875 L 13.765625 0.140625 L 12.734375 0.09375 L 11.890625 -0.09375 L 10.0625 0.046875 L 9.25 0 L 8.265625 0.09375 L 5.046875 0.046875 L 3.703125 -0.53125 L 3.359375 -1.75 L 3.265625 -2.71875 L 3.390625 -5.8125 L 3.265625 -6.703125 L 3.359375 -7.546875 L 3.390625 -14.796875 L 3.265625 -15.59375 L 3.3125 -19.265625 L 3.390625 -20.109375 L 3.265625 -21.046875 L 3.359375 -25.421875 L 3.21875 -26.40625 L 3.359375 -28.25 L 3.265625 -29.9375 L 3.75 -30.875 L 4.6875 -31.234375 L 5.59375 -31.1875 L 6.484375 -31.28125 L 7.28125 -31.1875 L 8.140625 -31.375 L 9.03125 -31.234375 L 12.6875 -31.328125 L 13.578125 -31.234375 L 14.34375 -31.28125 L 15.234375 -31.1875 L 16.21875 -31.28125 L 19.84375 -31.328125 L 20.640625 -31.140625 L 21.578125 -31.140625 L 22.484375 -30.796875 L 22.875 -29.9375 L 22.96875 -27.265625 L 22.921875 -26.359375 L 22.96875 -25.46875 L 22.515625 -24.671875 L 21.578125 -24.125 L 20.734375 -24.09375 L 14.34375 -24.171875 L 13.5 -24 L 12.640625 -24.046875 L 11.65625 -23.6875 L 11.265625 -22.828125 L 11.265625 -21.453125 L 11.625 -20.0625 L 12.5625 -19.65625 L 15.15625 -19.75 L 17.03125 -19.625 L 17.96875 -19.703125 L 20.59375 -19.703125 L 21.625 -19.125 L 22.078125 -17.875 L 21.9375 -13.859375 L 21.625 -12.953125 L 20.734375 -12.609375 L 19.703125 -12.640625 L 18.8125 -12.5625 L 16.984375 -12.609375 L 15.28125 -12.515625 L 13.859375 -12.640625 L 12.515625 -12.609375 L 11.703125 -12.109375 L 11.3125 -11.171875 L 11.3125 -8.359375 L 11.65625 -7.546875 L 12.609375 -7.109375 L 13.578125 -7.1875 L 14.4375 -7.0625 L 15.421875 -7.109375 L 16.3125 -7.015625 L 17.78125 -7.1875 L 20.0625 -7.15625 L 20.90625 -7.015625 L 21.9375 -7.109375 L 22.875 -6.703125 L 23.375 -5.8125 L 23.375 -1.296875 L 22.875 -0.359375 L 21.9375 0.046875 Z M 15.546875 0.140625 "/></g></g></g><g fill="#5271ff" fill-opacity="1"><g transform="translate(289.303172, 288.039682)"><g><path d="M 12.015625 0.40625 L 10.1875 0.09375 L 8.453125 -0.53125 L 7.546875 -0.796875 L 6.703125 -1.203125 L 6.078125 -1.875 L 4.515625 -2.859375 L 3.9375 -3.53125 L 3.3125 -4.109375 L 2.453125 -5.765625 L 2.1875 -6.5625 L 2.015625 -7.46875 L 1.875 -8.359375 L 2.234375 -9.296875 L 3.03125 -9.65625 L 6.484375 -9.828125 L 7.328125 -9.703125 L 8.140625 -9.78125 L 9.03125 -9.421875 L 10.5 -7.828125 L 11.265625 -7.328125 L 12.015625 -6.921875 L 14.296875 -6.703125 L 15.109375 -6.84375 L 16.484375 -6.921875 L 18.015625 -7.59375 L 18.59375 -8.265625 L 18.953125 -9.390625 L 18.671875 -10.5 L 18.09375 -11.03125 L 16.484375 -11.796875 L 9.46875 -12.609375 L 7.859375 -13.140625 L 4.828125 -14.796875 L 3.171875 -16.84375 L 2.453125 -18.40625 L 2.140625 -20.203125 L 2.09375 -21.578125 L 2.234375 -23.78125 L 3.03125 -26.234375 L 4.609375 -28.328125 L 6.75 -29.8125 L 8.265625 -30.703125 L 9.96875 -31.234375 L 10.765625 -31.375 L 11.65625 -31.421875 L 12.640625 -31.6875 L 16.09375 -31.59375 L 17.828125 -31.234375 L 20.328125 -30.390625 L 23.28125 -28.328125 L 24.265625 -26.984375 L 25.515625 -24.671875 L 25.609375 -23.8125 L 25.78125 -22.96875 L 25.421875 -22.203125 L 24.578125 -21.578125 L 23.78125 -21.671875 L 22.875 -21.671875 L 21.671875 -21.765625 L 19.578125 -21.578125 L 18.59375 -22.171875 L 17.921875 -23.0625 L 17.15625 -23.6875 L 16.359375 -24.21875 L 15.546875 -24.4375 L 14.125 -24.625 L 12.6875 -24.578125 L 11.890625 -24.40625 L 11.171875 -24 L 10.5 -23.5 L 9.96875 -22.921875 L 9.734375 -21.71875 L 9.921875 -20.375 L 10.59375 -19.75 L 12.25 -18.953125 L 14.609375 -18.453125 L 15.90625 -18.453125 L 16.84375 -18.28125 L 17.734375 -18.234375 L 18.640625 -18.09375 L 22.125 -17.03125 L 22.921875 -16.53125 L 23.640625 -16.171875 L 24.4375 -15.46875 L 25.609375 -14.125 L 26.09375 -13.40625 L 26.765625 -10.8125 L 26.859375 -9.390625 L 26.59375 -7.15625 L 26.328125 -6.390625 L 26.046875 -5.59375 L 25.5625 -4.609375 L 25.109375 -3.984375 L 23.8125 -2.640625 L 20.78125 -0.796875 L 19.9375 -0.40625 L 19.125 -0.3125 L 18.234375 0.046875 L 17.34375 0.171875 L 16.4375 0.40625 L 15.546875 0.484375 Z M 12.015625 0.40625 "/></g></g></g><g fill="#5271ff" fill-opacity="1"><g transform="translate(315.666398, 288.039682)"><g><path d="M 12.015625 0.40625 L 10.1875 0.09375 L 8.453125 -0.53125 L 7.546875 -0.796875 L 6.703125 -1.203125 L 6.078125 -1.875 L 4.515625 -2.859375 L 3.9375 -3.53125 L 3.3125 -4.109375 L 2.453125 -5.765625 L 2.1875 -6.5625 L 2.015625 -7.46875 L 1.875 -8.359375 L 2.234375 -9.296875 L 3.03125 -9.65625 L 6.484375 -9.828125 L 7.328125 -9.703125 L 8.140625 -9.78125 L 9.03125 -9.421875 L 10.5 -7.828125 L 11.265625 -7.328125 L 12.015625 -6.921875 L 14.296875 -6.703125 L 15.109375 -6.84375 L 16.484375 -6.921875 L 18.015625 -7.59375 L 18.59375 -8.265625 L 18.953125 -9.390625 L 18.671875 -10.5 L 18.09375 -11.03125 L 16.484375 -11.796875 L 9.46875 -12.609375 L 7.859375 -13.140625 L 4.828125 -14.796875 L 3.171875 -16.84375 L 2.453125 -18.40625 L 2.140625 -20.203125 L 2.09375 -21.578125 L 2.234375 -23.78125 L 3.03125 -26.234375 L 4.609375 -28.328125 L 6.75 -29.8125 L 8.265625 -30.703125 L 9.96875 -31.234375 L 10.765625 -31.375 L 11.65625 -31.421875 L 12.640625 -31.6875 L 16.09375 -31.59375 L 17.828125 -31.234375 L 20.328125 -30.390625 L 23.28125 -28.328125 L 24.265625 -26.984375 L 25.515625 -24.671875 L 25.609375 -23.8125 L 25.78125 -22.96875 L 25.421875 -22.203125 L 24.578125 -21.578125 L 23.78125 -21.671875 L 22.875 -21.671875 L 21.671875 -21.765625 L 19.578125 -21.578125 L 18.59375 -22.171875 L 17.921875 -23.0625 L 17.15625 -23.6875 L 16.359375 -24.21875 L 15.546875 -24.4375 L 14.125 -24.625 L 12.6875 -24.578125 L 11.890625 -24.40625 L 11.171875 -24 L 10.5 -23.5 L 9.96875 -22.921875 L 9.734375 -21.71875 L 9.921875 -20.375 L 10.59375 -19.75 L 12.25 -18.953125 L 14.609375 -18.453125 L 15.90625 -18.453125 L 16.84375 -18.28125 L 17.734375 -18.234375 L 18.640625 -18.09375 L 22.125 -17.03125 L 22.921875 -16.53125 L 23.640625 -16.171875 L 24.4375 -15.46875 L 25.609375 -14.125 L 26.09375 -13.40625 L 26.765625 -10.8125 L 26.859375 -9.390625 L 26.59375 -7.15625 L 26.328125 -6.390625 L 26.046875 -5.59375 L 25.5625 -4.609375 L 25.109375 -3.984375 L 23.8125 -2.640625 L 20.78125 -0.796875 L 19.9375 -0.40625 L 19.125 -0.3125 L 18.234375 0.046875 L 17.34375 0.171875 L 16.4375 0.40625 L 15.546875 0.484375 Z M 12.015625 0.40625 "/></g></g></g></svg>